<?xml version="1.0" encoding="utf-8" ?>
<svg xmlns="http://www.w3.org/2000/svg" xmlns:xlink="http://www.w3.org/1999/xlink" width="600" height="600">
	<path transform="scale(0.585938 0.585938)" d="M138.507 27.2613C143.612 34.1408 153.274 70.5651 157.706 81.5838L191.756 93.8616C198.502 96.299 205.39 98.54 211.949 101.439C204.38 104.81 196.194 107.172 188.354 109.84Q172.721 115.134 157.245 120.874C151.205 137.297 145.435 153.979 138.673 170.114C137.501 168.865 121.832 126.649 120.387 121.978C102.452 114.211 83.6489 108.832 65.743 101.041C83.8769 94.7532 101.562 86.5972 119.896 80.9867C126.662 63.2694 132.406 45.2154 138.507 27.2613ZM138.507 73.247C136.152 79.4262 134.064 85.939 131.323 91.9417C123.228 95.8453 114.218 97.6872 105.976 101.457C114.164 104.272 122.866 106.81 130.701 110.477C133.659 117.024 135.888 123.507 138.372 130.215C140.706 128.27 144.805 113.842 146.36 110.158C153.66 106.087 161.869 103.863 169.752 101.204C162.128 97.9432 154.225 94.7387 146.302 92.2998C144.404 87.1164 142.513 76.9841 138.507 73.247Z"/>
	<path transform="scale(0.585938 0.585938)" d="M130.468 183.76C132.592 186.086 147.41 231.153 149.777 237.811C168.935 244.769 188.425 250.683 207.643 257.442C195.525 260.795 183.425 265.328 171.587 269.576C164.295 272.193 156.654 274.465 149.615 277.688C147.67 285.58 144.817 293.234 142.235 300.93Q136.615 317.782 131.247 334.715C128.125 328.829 126.458 321.552 124.255 315.214Q117.702 295.975 110.415 277.002L54.6168 258.451C65.3112 254.096 76.4552 250.85 87.2974 246.887C95.1322 244.023 102.962 240.237 110.955 237.874C115.898 227.039 119.528 215.682 123.414 204.441C125.783 197.588 128.535 190.741 130.468 183.76ZM130.467 226.882C127.529 233.899 125.385 241.189 122.586 248.247C114.986 252.638 106.664 254.956 98.6387 258.368C106.474 260.938 113.961 264.187 121.691 266.992C123.473 271.436 127.985 287.594 130.56 289.913L131.237 289.363C133.723 281.623 135.821 273.335 140.031 266.333C147.942 263.866 155.681 260.542 163.361 257.437Q151.945 253.326 140.413 249.551C136.793 243.191 135.261 231.897 130.467 226.882Z"/>
	<path transform="scale(0.585938 0.585938)" d="M299.517 41.7607C303.664 49.119 305.746 58.0509 308.452 66.0357C311.087 73.8135 314.187 81.4284 316.86 89.1938C319.727 97.524 322.207 106.03 325.471 114.213C334.701 119.332 345.901 122.124 355.841 125.748C368.734 130.449 381.431 135.783 394.398 140.263C381.223 144.926 367.773 148.947 354.525 153.422C344.137 156.931 333.4 161.326 322.756 163.856C314.154 187.293 306.342 211.176 298.634 234.924C297.596 233.813 297.265 232.274 296.807 230.857C293.403 220.335 290.825 209.545 287.616 198.961C284.078 187.29 279.87 175.748 276.635 163.996C252.147 157.168 228.228 147.711 203.952 140.057C227.873 131.698 251.367 122.233 275.236 113.74C280.393 100.19 284.554 86.3425 289.081 72.5805C292.468 62.2855 296.297 52.098 299.517 41.7607ZM300.059 85.7944C295.356 98.3515 292.066 111.637 286.966 124.001C273.995 130.126 259.748 134.672 246.222 139.465C254.403 142.234 279.935 149.485 285.722 153.654C286.916 154.514 287.573 155.899 288.219 157.191C292.959 166.678 294.993 177.87 298.996 187.74C299.11 187.567 299.226 187.396 299.338 187.221C302.866 181.709 304.718 174.795 306.795 168.628C308.259 164.281 309.339 158.084 312.121 154.488C315.989 149.487 344.751 141.739 352.203 139.528C339.572 134.098 326.23 130.277 313.706 124.725C309.516 114.269 305.725 94.1652 300.059 85.7944Z"/>
	<path transform="scale(0.585938 0.585938)" d="M93.5515 468.458C88.8363 455.716 82.7715 443.289 77.2058 430.893C73.3366 422.275 68.3734 413.183 67.048 403.751Q66.8959 402.689 66.822 401.619Q66.7481 400.549 66.7527 399.476Q66.7574 398.404 66.8407 397.334Q66.9239 396.265 67.0853 395.205Q67.2466 394.144 67.4852 393.098Q67.7239 392.053 68.0384 391.027Q68.353 390.002 68.7419 389.002Q69.1308 388.003 69.5918 387.034C73.0215 379.688 78.9447 375.485 85.9967 371.99C103.025 363.552 120.943 356.745 138.387 349.223L217.681 314.292L505.623 187.465L768.74 72.1854Q798.046 59.3377 827.15 46.0398C835.877 42.1018 844.463 37.4543 853.491 34.2659C862.806 30.976 871.948 30.0439 881.099 34.4939C886.17 36.9596 889.777 40.5297 892.726 45.2698C899.477 56.123 903.576 70.1447 908.644 81.9585Q918.913 105.635 928.596 129.558C931.075 135.535 934.971 143.065 936.847 148.947C937.664 151.511 937.973 153.941 937.104 156.509C935.113 159.045 930.187 160.894 927.273 162.233C905.453 172.26 883.163 181.436 861.148 191.043L715.429 254.512L361.541 408.878L254.587 454.434C231.614 464.133 207.24 473.051 185.531 485.34L947.02 485.411C950.706 485.411 956.654 484.854 959.375 487.815C960.014 488.51 960.578 489.286 961.14 490.043C961.638 497.873 961.354 505.804 961.313 513.647L961.056 555.442Q960.983 572.479 961.155 589.516C961.252 598.581 961.613 607.758 961.012 616.809C960.879 618.812 960.782 620.542 959.374 622.09C958.265 623.309 956.842 624.264 955.505 625.214C954.766 651.105 955.365 677.149 955.326 703.06L955.331 855.728L955.513 913.5C955.539 925.494 956.397 938.448 954.353 950.257C952.662 960.03 947.257 969.42 940.104 976.228C933 982.989 922.901 987.841 913.113 988.867C903.452 989.881 893.561 989.577 883.849 989.665C863.302 989.852 842.761 989.576 822.213 989.599L636 989.628L318.188 989.607L211.409 989.581C194.146 989.569 176.776 990.021 159.528 989.551C145.133 989.158 132.199 985.468 122.121 974.726C105.553 957.066 107.637 934.236 108.144 911.85C107.767 904.388 108.013 896.752 108.008 889.275L108.001 849.147L107.996 725.906L107.987 657.201C107.987 647.916 107.046 633.15 108.33 624.55C105.803 623.567 103.011 621.968 101.848 619.381C99.4798 614.112 100.918 541.053 100.863 529.31C98.6928 526.252 96.2018 523.469 94.1653 520.311Q93.5527 519.369 92.9847 518.4Q92.4166 517.43 91.8944 516.435Q91.3722 515.44 90.897 514.422Q90.4217 513.404 89.9945 512.365Q89.5672 511.326 89.1889 510.268Q88.8106 509.21 88.482 508.135Q88.1534 507.061 87.8753 505.972Q87.5972 504.884 87.3701 503.783Q87.1431 502.683 86.9676 501.573Q86.7921 500.463 86.6685 499.347Q86.545 498.23 86.4736 497.108Q86.4023 495.987 86.3833 494.864Q86.3643 493.74 86.3978 492.617Q86.4312 491.494 86.517 490.374Q86.6027 489.254 86.7406 488.138Q86.8785 487.023 87.0683 485.916C88.122 479.574 90.491 474.068 93.5515 468.458ZM122.482 624.447C121.72 630.881 122.049 637.519 122.048 643.996L122.045 674.115L122.072 775.805L122.06 887.503L121.985 922.069C121.968 928.83 121.614 935.778 122.241 942.51C122.948 950.095 125.259 956.601 130.022 962.605C136.57 970.86 144.819 974.146 155.075 975.231C162.775 976.046 170.863 975.55 178.617 975.542L220.221 975.504L348.386 975.476L390.599 975.476C397.839 975.479 405.2 975.195 412.418 975.574C426.436 974.677 441.002 975.482 455.08 975.482L540.298 975.484L801.508 975.449L873.212 975.47C885.942 975.473 904.811 976.809 916.76 974.031C926.277 970.704 933.721 964.949 938.152 955.704C940.624 950.547 941.349 945.267 941.69 939.605C942.396 927.861 941.727 915.919 941.655 904.151L941.55 842.046L941.627 624.716Q909.422 624.465 877.217 624.553L765.073 624.495L425.646 624.475L228.601 624.446L159.536 624.005C147.222 623.991 134.776 623.722 122.482 624.447ZM650.149 139.127C635.122 146.59 619.571 153.102 604.166 159.734Q570.76 173.931 537.658 188.827C543.861 192.77 550.533 196.069 556.97 199.617C576.862 210.582 597.207 220.649 617.235 231.359Q637.302 242.263 657.519 252.886C660.849 254.638 665.211 257.835 668.779 258.735L669.121 258.577C684.009 252.891 698.441 245.933 713.056 239.595Q747.794 224.843 782.196 209.324L691.852 161.204C684.704 157.362 677.474 153.626 670.383 149.681C663.809 146.024 657.23 141.676 650.149 139.127ZM520.191 196.061C508 202.22 495.194 207.39 482.65 212.785Q463.272 221.177 443.983 229.771C432.514 234.776 420.99 239.454 410.044 245.564C422.812 250.544 436.659 258.647 448.848 265.19L515.065 301.227C521.807 304.935 528.347 309.052 535.175 312.599C536.438 313.255 539.26 315.01 540.647 314.751L617.841 280.889C628.918 276.131 640.09 270.702 651.422 266.639C638.539 258.18 624.546 251.148 610.906 244.017L567.87 221.309Q554.033 214.062 540.36 206.511C533.758 202.897 527.135 198.977 520.191 196.061ZM393.281 252.107L329.058 280.72C313.409 287.549 297.538 293.924 282.192 301.427C296.969 307.81 311.159 316.334 325.207 324.161L383.775 356.381C388.694 359.052 405.565 369.137 409.741 370.239C410.483 370.434 410.928 370.432 411.641 370.246C427.837 364.265 443.615 356.568 459.503 349.762C480.669 340.695 502.202 332.262 522.783 321.907C511.587 315.151 394.759 252.214 393.281 252.107ZM775.152 85.0369L709.63 113.392C695.792 119.3 681.234 124.446 668.044 131.702C677.072 137.366 686.747 141.931 696.177 146.887L738.518 169.479L777.428 190.805C784.297 194.511 792.557 199.644 800.05 201.768L800.439 201.472C821.17 193.567 841.472 183.781 861.832 174.905C877.441 168.1 893.547 162.151 908.778 154.534L825.175 110.529C809.973 102.5 794.883 93.5938 779.351 86.2613C778.118 85.6788 776.552 84.7756 775.152 85.0369ZM265.511 308.992C229.361 324.624 192.824 339.849 157.476 357.226L255.756 410.968C260.488 413.552 280.005 425.808 283.385 426.122C283.847 426.165 284.701 425.977 285.172 425.868Q317.963 411.401 350.918 397.313C363.865 391.873 382.265 385.509 393.921 378.737C380.09 370.966 270.341 309.022 265.511 308.992ZM241.163 500.425C209.129 530.793 176.188 560.198 144.057 590.449C137.298 596.813 130.949 603.59 124.264 610.018L245.874 609.743C247.058 609.34 247.885 608.89 248.859 608.096C262.535 596.956 274.973 583.67 287.71 571.437L329.57 531.844C340.525 521.446 351.296 510.861 362.461 500.687C340.109 499.842 317.615 500.405 295.25 500.54L241.163 500.425ZM383.884 500.406C345.28 536.17 305.484 572.524 268.47 609.838Q328.623 610.717 388.776 609.833C401.625 600.01 413.983 586.475 426.03 575.348C444.843 557.972 463.27 540.343 481.786 522.659C489.476 515.313 497.585 508.289 505.083 500.76C487.339 499.967 469.373 500.309 451.607 500.318L383.884 500.406ZM667.829 500.627C653.35 511.766 640.469 525.157 627.287 537.782Q600.232 563.604 572.718 588.938L557.48 603.052C555.232 605.162 553.1 607.633 550.669 609.502C568.003 610.21 585.335 610.036 602.679 610.023Q637.065 610.045 671.447 609.517L762.048 525.366C770.89 517.032 780.09 509.007 788.716 500.46L667.829 500.627ZM811.29 500.178C808.526 503.044 805.254 505.443 802.255 508.068Q794.464 514.956 786.83 522.017L736.364 568.923C721.608 582.463 706.374 595.612 692.746 610.303C732.035 610.707 771.345 610.06 810.625 610.017C812.313 609.902 813.244 609.315 814.534 608.236C819.496 604.086 824.088 599.28 828.789 594.821Q842.053 582.213 855.467 569.764Q880.646 546.467 905.571 522.899C913.488 515.481 921.681 508.269 929.415 500.67C901.179 499.848 872.786 500.425 844.533 500.427C836.186 500.428 818.574 501.407 811.29 500.178ZM527.097 500.433C488.11 536.489 448.654 572.403 411.27 610.117C420.842 610.585 430.429 610.127 440.005 610.009C452.368 609.857 464.745 609.974 477.109 609.994Q488.256 609.966 499.401 610.118C507.042 610.281 522.496 611.615 529.456 609.787C534.57 604.214 540.507 599.312 546.114 594.242Q558.624 582.93 570.842 571.304Q593.63 549.541 616.68 528.053C626.423 518.854 636.022 509.099 646.357 500.568C606.615 500.086 566.842 501.072 527.097 500.433ZM139.497 363.908Q123.807 370.926 108.023 377.733C101.418 380.596 93.6884 383.103 87.8185 387.274C85.2262 389.116 83.0487 391.544 81.9607 394.57C80.8135 397.761 81.056 401.103 81.8201 404.351C83.7267 412.456 88.3319 420.677 91.7508 428.254C95.7747 437.173 99.5841 446.244 103.839 455.05C117.871 446.163 132.82 440.858 149.554 444.61C164.647 447.994 174.628 457.081 182.984 469.636C186.244 468.089 189.49 466.424 192.802 465L238.881 445.634C247.987 441.818 257.861 438.408 266.389 433.432C257.239 427.935 139.94 363.957 139.497 363.908ZM945.439 504.925C936.237 515.306 924.932 524.472 914.749 533.901L861.162 583.982C854.245 590.437 840.134 601.969 835.487 609.278L836.391 609.593L835.366 609.724C836.148 610.021 836.793 610.174 837.625 610.259C855.317 610.39 872.964 609.942 890.648 609.923C909.42 609.903 928.275 610.303 947.035 609.887C947.035 598.088 948.116 508.629 945.609 505.089C945.563 505.025 945.495 504.979 945.439 504.925ZM866.467 45.5978C854.16 48.5049 842.218 55.3166 830.684 60.4899C818.173 66.1017 805.162 71.3089 792.975 77.5798C818.822 89.5133 843.711 103.977 869.056 116.959C885.25 125.178 901.25 133.924 917.577 141.859C911.561 124.166 903.638 107.313 896.478 90.0777C891.428 77.9231 887.129 64.3727 880.511 53.0218C879.045 50.5065 877.104 48.3089 874.492 46.9445C871.947 45.6149 869.276 45.4921 866.467 45.5978ZM134.642 457.634C123.171 459.841 113.56 464.427 106.841 474.33Q106.351 475.06 105.898 475.814Q105.445 476.568 105.03 477.343Q104.615 478.119 104.239 478.914Q103.864 479.709 103.528 480.522Q103.192 481.335 102.898 482.163Q102.603 482.992 102.35 483.834Q102.097 484.676 101.887 485.53Q101.676 486.384 101.509 487.247Q101.341 488.111 101.216 488.981Q101.092 489.852 101.011 490.728Q100.93 491.603 100.893 492.482Q100.856 493.361 100.863 494.24Q100.869 495.12 100.92 495.997Q100.971 496.875 101.065 497.75Q101.159 498.624 101.297 499.493Q101.435 500.361 101.616 501.222Q101.796 502.09 102.019 502.949Q102.242 503.807 102.508 504.654Q102.773 505.5 103.079 506.333Q103.386 507.165 103.733 507.981Q104.08 508.797 104.467 509.595Q104.854 510.394 105.28 511.172Q105.706 511.95 106.17 512.706Q106.634 513.462 107.134 514.194Q107.635 514.926 108.171 515.633Q108.707 516.339 109.277 517.019Q109.848 517.698 110.451 518.349Q111.054 518.999 111.688 519.619Q112.323 520.239 112.987 520.826Q113.651 521.414 114.344 521.968Q115.036 522.523 115.755 523.042Q116.474 523.562 117.218 524.045C124.464 528.746 132.529 530.685 141.105 530.501C152.125 528.404 162.24 523.421 168.704 513.919C173.87 506.327 175.814 496.304 174.073 487.307C172.167 477.466 166.809 469.213 158.425 463.677C151.773 459.284 142.653 456.485 134.642 457.634ZM189.051 500.427C187.473 505.172 186.299 510.157 184.353 514.757C180.053 524.922 171.378 533.932 161.571 538.894C148.967 545.27 134.753 546.231 121.304 541.812Q118.062 540.76 114.928 539.419C115.184 559.039 114.432 578.714 115.244 598.323C119.932 594.075 124.678 589.88 129.115 585.367C147.131 568.969 164.601 551.967 182.563 535.514L207.15 513.061C211.713 508.912 216.497 504.948 220.795 500.522L189.051 500.427ZM412.418 975.574C416.095 977.279 507.001 976.179 518.852 976.211L799.756 976.495L879.175 976.466C888.021 976.476 904.47 977.593 912.543 976.326C914.499 976.02 915.588 975.575 916.76 974.031C904.811 976.809 885.942 975.473 873.212 975.47L801.508 975.449L540.298 975.484L455.08 975.482C441.002 975.482 426.436 974.677 412.418 975.574ZM108.33 624.55C107.046 633.15 107.987 647.916 107.987 657.201L107.996 725.906L108.001 849.147L108.008 889.275C108.013 896.752 107.767 904.388 108.144 911.85L108.551 911.461C108.766 909.916 108.555 908.417 108.405 906.876L109.283 906.751L108.921 906.424C107.754 872.21 108.987 837.74 109.147 803.511L109.266 630.091C109.265 628.298 109.609 625.83 108.33 624.55Z"/>
	<path transform="scale(0.585938 0.585938)" d="M108.33 624.55C109.609 625.83 109.265 628.298 109.266 630.091L109.147 803.511C108.987 837.74 107.754 872.21 108.921 906.424L109.283 906.751L108.405 906.876C108.555 908.417 108.766 909.916 108.551 911.461L108.144 911.85C107.767 904.388 108.013 896.752 108.008 889.275L108.001 849.147L107.996 725.906L107.987 657.201C107.987 647.916 107.046 633.15 108.33 624.55Z"/>
	<path transform="scale(0.585938 0.585938)" d="M412.418 975.574C426.436 974.677 441.002 975.482 455.08 975.482L540.298 975.484L801.508 975.449L873.212 975.47C885.942 975.473 904.811 976.809 916.76 974.031C915.588 975.575 914.499 976.02 912.543 976.326C904.47 977.593 888.021 976.476 879.175 976.466L799.756 976.495L518.852 976.211C507.001 976.179 416.095 977.279 412.418 975.574Z"/>
	<path transform="scale(0.585938 0.585938)" d="M785.107 771.78C789.167 781.223 792.138 791.316 795.626 800.994C798.373 808.614 801.661 816.011 804.394 823.641C809.013 826.285 814.172 828.159 819.111 830.12C831.608 835.083 844.528 839.23 856.794 844.753C843.389 850.055 829.24 853.794 815.695 858.842C811.341 860.465 806.473 861.975 802.513 864.424C800.437 870.879 786.203 913.234 783.47 916.256L782.872 915.806C776.77 898.254 770.961 880.549 765.123 862.904C755.022 859.491 745.008 855.743 734.9 852.312C726.197 849.357 717.107 846.742 708.657 843.145Q726.804 837.081 744.729 830.391C751.924 827.765 759.281 825.37 766.337 822.4Q774.601 796.675 785.107 771.78ZM784.556 813.847C780.898 823.844 778.072 832.666 767.609 837.546C762.886 839.749 757.703 841.781 752.65 843.051C763.03 846.782 773.62 849.316 778.686 860.235C780.471 864.081 781.904 868.129 783.534 872.047C783.663 871.894 783.8 871.747 783.919 871.587C786.727 867.832 787.701 862.932 789.607 858.707C794.112 848.716 805.395 848.569 813.998 844.137C804.343 839.935 793.581 836.612 789.372 825.828C787.837 821.896 787.181 817.23 784.556 813.847Z"/>
	<path transform="scale(0.585938 0.585938)" d="M341.109 661.311C344.167 664.214 361.078 722.201 364.502 731.453C390.084 737.864 414.919 746.559 440.244 753.781C432.495 756.915 424.271 759.265 416.344 761.963Q399.665 767.645 383.177 773.859C377.021 776.11 370.11 778.007 364.357 781.085C363.267 781.668 363.154 781.755 362.703 782.936C359.825 790.474 358.173 798.868 355.709 806.596C351.223 820.66 346.116 834.501 341.776 848.623C341.331 849.841 340.827 850.956 340.252 852.113C338.124 847.518 337.138 841.681 335.572 836.788Q330.197 820.091 325.059 803.32C322.713 795.485 320.745 787.372 317.867 779.721C302.652 774.35 287.447 769.16 272.122 764.096C263.026 761.091 253.873 757.818 244.573 755.513C254.025 751.109 264.697 748.242 274.631 745.053Q296.996 737.628 319.658 731.168C325.815 707.765 333.381 684.227 341.109 661.311ZM341.277 705.83C337.447 717.856 333.912 729.883 330.539 742.043C316.572 746.53 302.502 750.25 288.776 755.497C301.869 759.18 315.415 762.965 327.531 769.24C330.917 776.857 338.081 803.821 341.51 807.592L342.04 806.735C345.387 794.466 348.682 782.019 353.405 770.195C362.264 766.06 371.924 763.329 381.201 760.284C386.263 758.622 391.462 756.501 396.624 755.257C382.622 750.486 368.408 746.513 354.138 742.639C351.332 736.086 344.049 708.737 341.277 705.83Z"/>
</svg>
